<?xml version="1.0" encoding="utf-8"?>
<!-- Generator: Adobe Illustrator 21.1.0, SVG Export Plug-In . SVG Version: 6.00 Build 0)  -->
<svg version="1.1" xmlns="http://www.w3.org/2000/svg" xmlns:xlink="http://www.w3.org/1999/xlink" x="0px" y="0px"
	 viewBox="0 0 24 24" style="enable-background:new 0 0 24 24;" xml:space="preserve">
<g id="Ebene_1">
</g>
<g id="Ebene_2">
	<g>
		<path d="M4.7,2.2h14.6c0.8,0,1.4,0.3,1.9,0.8c0.5,0.5,0.8,1.2,0.8,1.9V15c0,0.8-0.3,1.4-0.8,1.9c-0.5,0.5-1.2,0.8-1.9,0.8H12
			l-6.4,4.6v-4.6H4.7c-0.8,0-1.4-0.3-1.9-0.8c-0.5-0.5-0.8-1.2-0.8-1.9V4.9c0-0.8,0.3-1.4,0.8-1.9C3.3,2.4,3.9,2.2,4.7,2.2z M19.3,4
			H4.7C4.4,4,4.2,4.1,4,4.3C3.8,4.4,3.8,4.7,3.8,4.9V15c0,0.3,0.1,0.5,0.3,0.6c0.2,0.2,0.4,0.3,0.6,0.3h2.7v2.9l4-2.9h7.9
			c0.3,0,0.5-0.1,0.6-0.3c0.2-0.2,0.3-0.4,0.3-0.6V4.9c0-0.3-0.1-0.5-0.3-0.6C19.8,4.1,19.6,4,19.3,4z"/>
	</g>
</g>
</svg>
